# xmcd
#
# Track frame offsets:
#	150
#	21843
#	48027
#	72962
#	96023
#	118705
#	148750
#	173319
#	193754
#	223572
#
# Disc length: 3189 seconds
#
# Revision: 1
# Processed by: cddbd v1.5.1PL2 Copyright (c) Steve Scherf et al.
# Submitted via: EasyCDDAExtractor 9.0.0.1
#
DISCID=850c730a
DTITLE=Blue Oyster Cult - Toad's Place New Haven 16-10-98 Disc 1
DYEAR=1998
DGENRE=Hard Rock
TTITLE0=Burnin' For You
TTITLE1=Cities On Flame
TTITLE2=ETI
TTITLE3=Harvest Moon
TTITLE4=Take Me Away
TTITLE5=Buck's Boogie
TTITLE6=Joan Crawford
TTITLE7=Live For Me
TTITLE8=Flaming Telepaths
TTITLE9=See You In Black
EXTD=
EXTT0=
EXTT1=
EXTT2=
EXTT3=
EXTT4=
EXTT5=
EXTT6=
EXTT7=
EXTT8=
EXTT9=
PLAYORDER=
